<svg xmlns="http://www.w3.org/2000/svg">
  <symbol viewBox="0 0 131 21" id="logo">
    <path d="M0 .4321h3.0614l7.4736 15.6996L18.0085.4321H21.07v20.1358h-2.9714V6.251l-6.8132 14.317H9.7846L2.9414 6.251v14.317H0V.4321Zm31.9844
      0h2.9414l8.374 20.1358h-3.1215l-2.101-5.0123h-9.2744l-2.041 5.0123h-3.1515L31.9844.4321Zm5.2525 12.6749-3.7818-9.4198-3.7818 9.4198h7.5636ZM46.6042.4321h8.434c2.241 0
      3.9618.5185 5.1624 1.5555 1.2006 1.037 1.8009 2.5542 1.8009 4.5515 0 1.4787-.4102 2.7366-1.2306 3.7737-.8204 1.0178-1.981 1.7091-3.4817 2.074l4.6222 8.1811h-3.1815l-4.4721-7.9506h-4.5922v7.9506h-3.0614V.4321Zm7.9237 9.7078c1.3407 0 2.4012-.2977 3.1815-.893.8004-.6145 1.2006-1.5171 1.2006-2.7078 0-1.3059-.3902-2.2373-1.1706-2.7942-.7603-.557-1.8308-.8354-3.2115-.8354h-4.8623v7.2304h4.8623ZM75.3097 21c-2.081 0-3.9618-.4321-5.6426-1.2963-1.6808-.8834-3.0015-2.1221-3.9619-3.716-.9605-1.594-1.4407-3.4184-1.4407-5.4733s.4802-3.8793
      1.4407-5.4733c.9604-1.594 2.2811-2.8326 3.9619-3.716C71.3479.4417 73.2287 0 75.3097 0s3.9619.4417 5.6427 1.3251c1.6808.8834 3.0014 2.122 3.9619 3.716.9604 1.594 1.4407 3.4184 1.4407 5.4733s-.4803 3.8793-1.4407 5.4733c-.9605 1.5939-2.2811 2.8326-3.9619 3.716C79.2716 20.5679 77.3907
      21 75.3097 21Zm0-2.6502c1.4807 0 2.8214-.3169 4.0219-.9506 1.2206-.653 2.1811-1.5652 2.8814-2.7366.7003-1.1907 1.0505-2.5734 1.0505-4.1482 0-1.5556-.3502-2.919-1.0505-4.0905-.6803-1.1907-1.6208-2.103-2.8213-2.7367-1.2006-.653-2.5412-.9794-4.0219-.9794-1.5008 0-2.8614.3169-4.082.9506-1.2005.6338-2.161 1.546-2.8813 2.7367-.7004 1.1906-1.0505 2.5637-1.0505 4.1193 0 1.5748.3501 2.9575 1.0505 4.1482.7003 1.1714 1.6507 2.0836 2.8513 2.7366 1.2206.6337 2.5712.9506 4.0519.9506ZM99.9601 21c-2.081
      0-3.9619-.4321-5.6427-1.2963-1.6808-.8834-3.0014-2.1221-3.9618-3.716-.9605-1.594-1.4407-3.4184-1.4407-5.4733s.4802-3.8793 1.4407-5.4733c.9604-1.594 2.281-2.8326 3.9618-3.716C95.9982.4417 97.8791 0 99.9601 0c2.0809 0 3.9619.4417 5.6429 1.3251s3.001 2.122 3.962 3.716c.96 1.594 1.44 3.4184 1.44 5.4733s-.48 3.8793-1.44 5.4733c-.961 1.5939-2.281 2.8326-3.962 3.716-1.681.8642-3.562 1.2963-5.6429 1.2963Zm0-2.6502c1.4809 0 2.8209-.3169 4.0219-.9506 1.221-.653 2.181-1.5652
      2.881-2.7366.701-1.1907 1.051-2.5734 1.051-4.1482 0-1.5556-.35-2.919-1.051-4.0905-.68-1.1907-1.62-2.103-2.821-2.7367-1.201-.653-2.541-.9794-4.022-.9794-1.5006 0-2.8612.3169-4.0818.9506-1.2006.6338-2.161 1.546-2.8814 2.7367-.7003 1.1906-1.0505 2.5637-1.0505 4.1193 0 1.5748.3502 2.9575 1.0505 4.1482.7004 1.1714 1.6508 2.0836 2.8514 2.7366 1.2206.6337 2.5712.9506 4.0519.9506ZM114.312.4321h2.911l10.686 15.1811V.4321H131v20.1358h-2.941l-10.685-15.181v15.181h-3.062V.4321Z"
    />
  </symbol>

  <symbol viewBox="0 0 16 21" id="icon-log-in">
    <path d="M0 21C0 18.8783 0.842855 16.8434 2.34315 15.3431C3.84344 13.8429 5.87827 13 8 13C10.1217 13 12.1566 13.8429 13.6569 15.3431C15.1571 16.8434 16 18.8783 16 21H14C14 19.4087 13.3679 17.8826 12.2426 16.7574C11.1174 15.6321 9.5913 15 8 15C6.4087 15 4.88258 15.6321 3.75736 16.7574C2.63214 17.8826 2 19.4087 2 21H0ZM8 12C4.685 12 2 9.315 2 6C2 2.685 4.685 0 8 0C11.315 0 14 2.685 14 6C14 9.315 11.315 12 8 12ZM8 10C10.21 10 12 8.21 12 6C12 3.79 10.21 2 8 2C5.79 2 4 3.79 4 6C4 8.21 5.79 10 8 10Z"/>
  </symbol>

  <symbol viewBox="0 0 18 21" id="icon-basket">
    <path d="M4 7V5C4 3.67392 4.52678 2.40215 5.46447 1.46447C6.40215 0.526784 7.67392 0 9 0C10.3261 0 11.5979 0.526784 12.5355 1.46447C13.4732 2.40215 14 3.67392 14 5V7H17C17.2652 7 17.5196 7.10536 17.7071 7.29289C17.8946 7.48043 18 7.73478 18 8V20C18 20.2652 17.8946 20.5196 17.7071 20.7071C17.5196 20.8946 17.2652 21 17 21H1C0.734784 21 0.48043 20.8946 0.292893 20.7071C0.105357 20.5196 0 20.2652 0 20V8C0 7.73478 0.105357 7.48043 0.292893 7.29289C0.48043 7.10536 0.734784 7 1 7H4ZM4 9H2V19H16V9H14V11H12V9H6V11H4V9ZM6 7H12V5C12 4.20435 11.6839 3.44129 11.1213 2.87868C10.5587 2.31607 9.79565 2 9 2C8.20435 2 7.44129 2.31607 6.87868 2.87868C6.31607 3.44129 6 4.20435 6 5V7Z"/>
  </symbol>

  <symbol viewBox="0 0 27 14" id="icon-arrow">
    <path d="M0 7H26M26 7L19.697 1M26 7L19.697 13"/>
  </symbol>

  <symbol viewBox="0 0 27 14" fill="none" id="slider-arrow-left">
    <path d="M27 7H1M1 7L7.30303 1M1 7L7.30303 13" stroke="#122947"/>
  </symbol>

  <symbol viewBox="0 0 27 14" fill="none" id="slider-arrow-right">
    <path d="M0 7H26M26 7L19.697 1M26 7L19.697 13" stroke="#122947"/>
  </symbol>

  <symbol viewBox="0 0 11 18" id="icon-facebook">
    <path d="M6.2857 7H11l-.5238 2H6.2857v9H4.1905V9H0V7h4.1905V5.128c0-1.783.1948-2.43.5594-3.082.3572-.6442.9091-1.171 1.584-1.512C7.0169.186 7.6948 0 9.5627 0c.5468 0 1.0266.05 1.4373.15V2H9.5627c-1.387 0-1.8093.078-2.2398.298-.3185.162-.5553.388-.725.692-.2305.411-.3122.814-.3122 2.138V7Z"/>
  </symbol>

  <symbol viewBox="0 0 20 20" id="icon-instagram">
    <path d="M10 7a3 3 0 1 0 0 6 3 3 0 0 0 0-6Zm0-2a4.9997 4.9997 0 0 1 5 5 4.9997 4.9997 0 0 1-5 5 5 5 0 0 1 0-10Zm6.5-.25a1.25 1.25 0 1 1-2.5001 0 1.25 1.25 0 0 1 2.5001 0ZM10 2c-2.474 0-2.878.007-4.029.058-.784.037-1.31.142-1.798.332-.434.168-.747.369-1.08.703a2.89 2.89 0 0 0-.704 1.08c-.19.49-.295 1.015-.331 1.798C2.006 7.075 2 7.461 2 10c0 2.474.007 2.878.058 4.029.037.783.142 1.31.331 1.797.17.435.37.748.702 1.08.337.336.65.537 1.08.703.494.191 1.02.297 1.8.333C7.075 17.994 7.461 18 10 18c2.474 0 2.878-.007 4.029-.058.782-.037 1.309-.142 1.797-.331.433-.169.748-.37 1.08-.702.337-.337.538-.65.704-1.08.19-.493.296-1.02.332-1.8.052-1.104.058-1.49.058-4.029 0-2.474-.007-2.878-.058-4.029-.037-.782-.142-1.31-.332-1.798a2.9106 2.9106 0 0 0-.703-1.08 2.8844 2.8844 0 0 0-1.08-.704c-.49-.19-1.016-.295-1.798-.331C12.925 2.006 12.539 2 10 2Zm0-2c2.717 0 3.056.01 4.122.06 1.065.05 1.79.217 2.428.465.66.254 1.216.598 1.772 1.153a4.9074 4.9074 0 0 1 1.153 1.772c.247.637.415 1.363.465 2.428.047 1.066.06 1.405.06 4.122 0 2.717-.01 3.056-.06 4.122-.05 1.065-.218 1.79-.465 2.428a4.883 4.883 0 0 1-1.153 1.772 4.9144 4.9144 0 0 1-1.772 1.153c-.637.247-1.363.415-2.428.465-1.066.047-1.405.06-4.122.06-2.717 0-3.056-.01-4.122-.06-1.065-.05-1.79-.218-2.428-.465a4.8903 4.8903 0 0 1-1.772-1.153A4.9037 4.9037 0 0 1 .525 16.55C.277 15.913.11 15.187.06 14.122.013 13.056 0 12.717 0 10c0-2.717.01-3.056.06-4.122.05-1.066.217-1.79.465-2.428a4.88 4.88 0 0 1 1.153-1.772A4.897 4.897 0 0 1 3.45.525C4.088.277 4.812.11 5.878.06 6.944.013 7.283 0 10 0Z"/>
  </symbol>

  <symbol viewBox="0 0 20 17" id="icon-twitter">
    <path d="M13.8641 2.0437c-.7578 0-1.4854.3045-2.0261.8482-.5408.5438-.8515 1.2832-.8654 2.0592l-.0279 1.6084a.6256.6256 0 0 1-.057.2496.612.612 0 0 1-.1517.2037.5954.5954 0 0 1-.2198.1225.5848.5848 0 0 1-.2495.0196l-1.5564-.2165c-2.048-.286-4.0102-1.252-5.8926-2.8584-.5962 3.3803.5683 5.7219 3.373 7.5284l1.7419 1.1213a.6067.6067 0 0 1 .2003.2133.6255.6255 0 0 1 .0192.574.6097.6097 0 0 1-.1856.2268l-1.5873 1.1877c.9442.0602 1.8405.0173 2.5844-.1338 4.7041-.962 7.8319-4.5873 7.8319-10.5675 0-.4882-1.0091-2.1865-2.9314-2.1865ZM8.9785 4.9134c.0174-.9845.318-1.9417.864-2.752.5461-.8103 1.3134-1.4376 2.2059-1.8033a4.7775 4.7775 0 0 1 2.8115-.2529c.9411.2009 1.8034.6816 2.479 1.382.7089-.0051 1.3121.1787 2.6611-.6587-.334 1.6748-.4985 2.4019-1.2104 3.4017 0 7.8041-4.6832 11.5989-9.4352 12.5701C6.096 17.4661 1.358 16.3724 0 14.9202c.692-.0551 3.5037-.3646 5.1289-1.5829-1.375-.9282-6.8478-4.2268-3.2514-13.095 1.688 2.019 3.4 3.3935 5.1348 4.1227 1.1546.485 1.4378.4748 1.9672.5494l-.001-.001Z"/>
  </symbol>
</svg>
