<svg width="20" height="17" fill="none" xmlns="http://www.w3.org/2000/svg"><path d="M13.864 2.044c-.758 0-1.485.304-2.026.848a2.997 2.997 0 0 0-.865 2.06l-.028 1.608a.626.626 0 0 1-.209.453.595.595 0 0 1-.47.142L8.71 6.938C6.662 6.652 4.7 5.686 2.818 4.08c-.597 3.38.568 5.722 3.373 7.528l1.742 1.122a.607.607 0 0 1 .28.497.626.626 0 0 1-.246.517l-1.588 1.188c.944.06 1.84.017 2.585-.134 4.704-.962 7.832-4.588 7.832-10.568 0-.488-1.01-2.186-2.932-2.186ZM8.98 4.914a5.087 5.087 0 0 1 .864-2.753A4.908 4.908 0 0 1 12.048.358 4.777 4.777 0 0 1 14.86.105c.941.201 1.803.682 2.479 1.382.709-.005 1.312.179 2.661-.659-.334 1.675-.498 2.402-1.21 3.402 0 7.804-4.684 11.6-9.436 12.57-3.258.666-7.996-.428-9.354-1.88.692-.055 3.504-.364 5.129-1.583C3.754 12.41-1.72 9.111 1.877.242c1.688 2.02 3.4 3.394 5.135 4.123 1.155.485 1.438.475 1.968.55l-.001-.002Z" fill="#122947"/></svg>